<?xml version="1.0" encoding="UTF-8"?>
<svg width="49px" height="40px" viewBox="0 0 49 40" version="1.1" xmlns="http://www.w3.org/2000/svg" xmlns:xlink="http://www.w3.org/1999/xlink">
    <!-- Generator: Sketch 50.2 (55047) - http://www.bohemiancoding.com/sketch -->
    <title>Fill 1</title>
    <desc>Created with Sketch.</desc>
    <defs></defs>
    <g id="Page-1" stroke="none" stroke-width="1" fill="none" fill-rule="evenodd">
        <g id="Desktop-HD" transform="translate(-696.000000, -991.000000)" fill="#FFFFFF">
            <path d="M711.575128,1017.77426 C704.14305,1012.89834 703.49247,1001.57561 703.454449,1000.98601 C703.352121,999.398934 703.00117,998.098069 701.904274,996.865004 C701.098558,995.959398 695.967764,994.473249 696.000153,994.597082 C696.553256,993.757418 699.988128,992.904906 701.166933,992.463287 C703.337804,991.650092 705.559135,990.477239 707.967363,991.255452 C709.976058,991.904646 711.199926,993.606574 712.222736,995.32816 C713.768921,997.930508 713.393797,997.705984 715.682955,999.355515 C720.312592,1002.6915 724.70057,1006.64919 728.743855,1010.66656 C729.385439,1011.30399 738.06196,1022.28278 738.487778,1021.82545 C738.320439,1022.00517 734.583747,1019.80706 734.153703,1019.6511 C733.802831,1020.2092 739.926472,1025.09851 740.41519,1025.54191 C742.551639,1027.48082 744.323524,1029.65332 745,1031 C741.5717,1030.534 737.813102,1025.06508 734.415547,1023.63187 C734.501368,1023.40966 736.407344,1025.50701 735.612347,1025.60243 C732.383304,1025.98988 728.774209,1020.50594 725.089932,1021.19809 C724.625232,1021.28539 719.664672,1022.18643 718.203682,1021.17347 C717.305652,1020.55098 715.372607,1020.17577 714.512286,1019.78508 C714.330787,1019.70265 711.279801,1017.57628 711.510508,1017.69408" id="Fill-1"></path>
        </g>
    </g>
</svg>