<?xml version="1.0" encoding="UTF-8"?>
<svg width="51px" height="51px" viewBox="0 0 51 51" version="1.1" xmlns="http://www.w3.org/2000/svg" xmlns:xlink="http://www.w3.org/1999/xlink">
    <!-- Generator: Sketch 51.2 (57519) - http://www.bohemiancoding.com/sketch -->
    <title>logo</title>
    <desc>Created with Sketch.</desc>
    <defs></defs>
    <g id="Page-1" stroke="none" stroke-width="1" fill="none" fill-rule="evenodd">
        <g id="Desktop-HD" transform="translate(-50.000000, -27.000000)">
            <g id="header" transform="translate(50.000000, 27.000000)">
                <g id="logo">
                    <path d="M39.1142597,46.9223597 C37.7966328,47.778703 36.400603,48.5109716 34.9322597,49.1138373 C31.7961403,50.4010164 28.4727672,51.035091 25.0542448,50.9985537 C21.6357224,50.9620164 18.3268119,50.2571507 15.2180955,48.9029866 C12.2167075,47.5952552 9.52817015,45.7409866 7.2270806,43.3904194 C4.92675224,41.0406134 3.12957313,38.312494 1.88654328,35.283703 C0.599364179,32.1468224 -0.0347104478,28.8234493 0.00182686567,25.4049269 C0.0383641791,21.9871657 0.743229851,18.677494 2.09739403,15.5695388 C3.40436418,12.5673896 5.25939403,9.87885224 7.6092,7.57852388 C9.95976716,5.27743433 12.6871254,3.48101642 15.7166776,2.23722537 C18.852797,0.950046269 22.1769313,0.315971642 25.5946925,0.352508955 C29.0132149,0.389046269 32.3221254,1.09391194 35.4308418,2.44807612 C38.4322299,3.75580746 41.1207672,5.61007612 43.4218567,7.96064328 C45.7221851,10.3104493 47.5193642,13.0385687 48.762394,16.0673597 C50.0495731,19.2042403 50.684409,22.5276134 50.6471104,25.9453746 C50.6113343,29.363897 49.9057075,32.6735687 48.5515433,35.7815239 C47.2445731,38.7836731 45.3895433,41.4722104 43.0397373,43.7725388 C41.8279164,44.9584791 40.5156179,46.0112104 39.1142597,46.9223597" id="Fill-1" fill="#E40A39"></path>
                    <path d="M20.3938054,18.1980126 C20.4235413,15.3752968 22.8596,13.1332102 25.7188238,13.4219928 C28.2242664,13.6747733 30.0800932,15.8915819 30.0526447,18.4209191 L29.9878356,24.5696138 L28.6047337,24.5542938 C28.4347052,24.5527618 28.3363479,24.7457942 28.4369926,24.8829085 L31.3267148,28.8316466 C31.4891187,29.0530211 31.8169764,29.0568511 31.9831926,28.8385406 L34.9567854,24.9526146 C35.0604799,24.8177983 34.9659349,24.6224679 34.7966689,24.6209359 L33.3685819,24.6056159 L33.4333909,18.5250953 C33.4814259,14.029432 30.0198589,10.1810401 25.5480328,10.0063917 C20.9138029,9.82484932 17.0618565,13.533829 17.0122966,18.1620106 L17.0000973,19.333993 C16.9901853,20.2723449 17.7389207,21.0406445 18.6729338,21.0506025 C19.6061845,21.0605606 20.371694,20.308347 20.3808435,19.3707611 L20.3938054,18.1980126 Z" id="Fill-4" fill="#FEFEFE"></path>
                    <path d="M29.6061946,33.8019874 C29.5764587,36.6247032 27.1404,38.8667898 24.2811762,38.5780072 C21.7757336,38.3252267 19.9199068,36.1084181 19.9473553,33.5790809 L20.0121644,27.4303862 L21.3952663,27.4457062 C21.5652948,27.4472382 21.6636521,27.2542058 21.5630074,27.1170915 L18.6732852,23.1683534 C18.5108813,22.9469789 18.1830236,22.9431489 18.0168074,23.1614594 L15.0432146,27.0473854 C14.9395201,27.1822017 15.0340651,27.3775321 15.2033311,27.3790641 L16.6314181,27.3943841 L16.5666091,33.4749047 C16.5193366,37.970568 19.9801411,41.8189599 24.4519672,41.9936083 C29.0861971,42.1751507 32.9381435,38.466171 32.9877034,33.8379894 L32.9999027,32.666007 C33.0098147,31.7276551 32.2610793,30.9593555 31.3270662,30.9493975 C30.3938155,30.9394394 29.628306,31.691653 29.6191565,32.6292389 L29.6061946,33.8019874 Z" id="Fill-6" fill="#FEFEFE"></path>
                </g>
            </g>
        </g>
    </g>
</svg>