<?xml version="1.0" encoding="UTF-8"?>
<svg width="262px" height="53px" viewBox="0 0 262 53" version="1.1" xmlns="http://www.w3.org/2000/svg" xmlns:xlink="http://www.w3.org/1999/xlink">
    <!-- Generator: Sketch 50.2 (55047) - http://www.bohemiancoding.com/sketch -->
    <title>StarlingX</title>
    <desc>Created with Sketch.</desc>
    <defs></defs>
    <g id="Page-1" stroke="none" stroke-width="1" fill="none" fill-rule="evenodd">
        <g id="Desktop-HD" transform="translate(-589.000000, -53.000000)" fill="#FFFFFF">
            <path d="M626.478,62.8 L626.478,64.256 L622.266,64.256 L622.266,62.8 C622.266,62.2453306 622.066669,61.7686687 621.668,61.37 C621.269331,60.9713313 620.792669,60.772 620.238,60.772 L595.278,60.772 C594.723331,60.772 594.246669,60.9713313 593.848,61.37 C593.449331,61.7686687 593.25,62.2453306 593.25,62.8 L593.25,71.172 C593.25,71.7266694 593.449331,72.1946648 593.848,72.576 C594.246669,72.9573352 594.723331,73.148 595.278,73.148 L620.238,73.148 C621.971342,73.148 623.444661,73.7546606 624.658,74.968 C625.871339,76.1813394 626.478,77.654658 626.478,79.388 L626.478,87.76 C626.478,89.493342 625.871339,90.9666606 624.658,92.18 C623.444661,93.3933394 621.971342,94 620.238,94 L595.278,94 C593.544658,94 592.071339,93.3933394 590.858,92.18 C589.644661,90.9666606 589.038,89.493342 589.038,87.76 L589.038,86.304 L593.25,86.304 L593.25,87.76 C593.25,88.3146694 593.449331,88.7913313 593.848,89.19 C594.246669,89.5886687 594.723331,89.788 595.278,89.788 L620.238,89.788 C620.792669,89.788 621.269331,89.5886687 621.668,89.19 C622.066669,88.7913313 622.266,88.3146694 622.266,87.76 L622.266,79.388 C622.266,78.8333306 622.066669,78.3653352 621.668,77.984 C621.269331,77.6026648 620.792669,77.412 620.238,77.412 L595.278,77.412 C593.544658,77.412 592.071339,76.8053394 590.858,75.592 C589.644661,74.3786606 589.038,72.905342 589.038,71.172 L589.038,62.8 C589.038,61.066658 589.644661,59.5933394 590.858,58.38 C592.071339,57.1666606 593.544658,56.56 595.278,56.56 L620.238,56.56 C621.971342,56.56 623.444661,57.1666606 624.658,58.38 C625.871339,59.5933394 626.478,61.066658 626.478,62.8 Z M649.202,68.104 L636.15,68.104 L636.15,87.708 C636.15,88.2626694 636.349331,88.7393313 636.748,89.138 C637.146669,89.5366687 637.623331,89.736 638.178,89.736 L649.202,89.736 L649.202,94 L638.178,94 C636.409991,94 634.919339,93.3846728 633.706,92.154 C632.492661,90.9233272 631.886,89.441342 631.886,87.708 L631.886,53.96 L636.15,53.96 L636.15,63.84 L649.202,63.84 L649.202,68.104 Z M677.542,63.84 C679.310009,63.84 680.809327,64.4553272 682.04,65.686 C683.270673,66.9166728 683.886,68.398658 683.886,70.132 L683.886,94 L659.446,94 C657.712658,94 656.230673,93.3846728 655,92.154 C653.769327,90.9233272 653.154,89.441342 653.154,87.708 L653.154,76.788 L679.57,76.788 L679.57,70.132 C679.57,69.5773306 679.370669,69.1006687 678.972,68.702 C678.573331,68.3033313 678.096669,68.104 677.542,68.104 L653.154,68.104 L653.154,63.84 L677.542,63.84 Z M679.57,89.736 L679.57,81.052 L657.418,81.052 L657.418,87.708 C657.418,88.2626694 657.617331,88.7393313 658.016,89.138 C658.414669,89.5366687 658.891331,89.736 659.446,89.736 L679.57,89.736 Z M695.534,63.84 L712.486,63.84 L712.486,68.104 L695.534,68.104 C694.979331,68.104 694.502669,68.3033313 694.104,68.702 C693.705331,69.1006687 693.506,69.5773306 693.506,70.132 L693.506,94 L689.242,94 L689.242,70.132 C689.242,68.398658 689.857327,66.9166728 691.088,65.686 C692.318673,64.4553272 693.800658,63.84 695.534,63.84 Z M715.866,53.96 L720.13,53.96 L720.13,87.708 C720.13,88.2626694 720.329331,88.7393313 720.728,89.138 C721.126669,89.5366687 721.603331,89.736 722.158,89.736 L727.254,89.736 L727.254,94 L722.158,94 C720.424658,94 718.942673,93.3846728 717.712,92.154 C716.481327,90.9233272 715.866,89.441342 715.866,87.708 L715.866,53.96 Z M731.57,94 L731.57,63.84 L735.834,63.84 L735.834,94 L731.57,94 Z M731.57,53.96 L735.834,53.96 L735.834,58.224 L731.57,58.224 L731.57,53.96 Z M766.93,63.84 C768.663342,63.84 770.145327,64.4553272 771.376,65.686 C772.606673,66.9166728 773.222,68.398658 773.222,70.132 L773.222,94 L768.958,94 L768.958,70.132 C768.958,69.5773306 768.758669,69.1006687 768.36,68.702 C767.961331,68.3033313 767.484669,68.104 766.93,68.104 L748.834,68.104 C748.279331,68.104 747.794002,68.3033313 747.378,68.702 C746.961998,69.1006687 746.754,69.5773306 746.754,70.132 L746.754,94 L742.49,94 L742.49,63.84 L766.93,63.84 Z M808.686,99.564 C808.686,101.332009 808.079339,102.831327 806.866,104.062 C805.652661,105.292673 804.162009,105.908 802.394,105.908 L783.57,105.908 L783.57,101.592 L802.394,101.592 C802.948669,101.592 803.425331,101.392669 803.824,100.994 C804.222669,100.595331 804.422,100.118669 804.422,99.564 L804.422,94 L784.298,94 C782.564658,94 781.082673,93.3846728 779.852,92.154 C778.621327,90.9233272 778.006,89.441342 778.006,87.708 L778.006,70.132 C778.006,68.398658 778.621327,66.9166728 779.852,65.686 C781.082673,64.4553272 782.564658,63.84 784.298,63.84 L802.394,63.84 C804.162009,63.84 805.652661,64.4553272 806.866,65.686 C808.079339,66.9166728 808.686,68.398658 808.686,70.132 L808.686,99.564 Z M784.298,89.736 L802.394,89.736 C802.948669,89.736 803.425331,89.5366687 803.824,89.138 C804.222669,88.7393313 804.422,88.2626694 804.422,87.708 L804.422,70.132 C804.422,69.5773306 804.222669,69.1006687 803.824,68.702 C803.425331,68.3033313 802.948669,68.104 802.394,68.104 L784.298,68.104 C783.743331,68.104 783.266669,68.3033313 782.868,68.702 C782.469331,69.1006687 782.27,69.5773306 782.27,70.132 L782.27,87.708 C782.27,88.2626694 782.469331,88.7393313 782.868,89.138 C783.266669,89.5366687 783.743331,89.736 784.298,89.736 Z M845.242,56.56 L850.65,56.56 L834.946,75.28 L850.702,94 L845.242,94 L832.242,78.556 L819.19,94 L813.782,94 L829.486,75.28 L813.782,56.56 L819.19,56.56 L832.242,72.004 L845.242,56.56 Z" id="StarlingX"></path>
        </g>
    </g>
</svg>