<svg id="Layer_1" data-name="Layer 1" xmlns="http://www.w3.org/2000/svg" viewBox="0 0 123.51 107.77"><defs><style>.cls-1{fill:#fff;}</style></defs><title>StarlingX_Icon_RGB_Stacked_White</title><polygon class="cls-1" points="58.46 21.04 42.68 0 0 0 37.12 49.49 58.46 21.04"/><path class="cls-1" d="M137.22,163.41l25.85,34.47h42.68l-37.31-49.75C160.24,156.73,148.31,162.63,137.22,163.41Z" transform="translate(-82.25 -90.12)"/><path class="cls-1" d="M111.59,188.68l22.84-30.45h.32c11.81,0,25.65-7.32,33.15-17.64l23.37-31.16a47.61,47.61,0,0,1,14.48-12.18c-6.28-2.6-15.84-4-15.84-4-3.7-3.16-12.15-3.16-12.15-3.16-14.69,0-21.67,9.3-21.67,9.3l-32.21,43c19.16-.12,23-3.08,34.73-18.24l2.45-3.31a13,13,0,0,1,10.46-5.27l-8.71,11.76c-12.75,16.5-18,20.34-40.18,20.34l-2.69,0L82.25,197.88h9.24C98.54,197.88,107.14,194.14,111.59,188.68Z" transform="translate(-82.25 -90.12)"/></svg>